<svg xmlns="http://www.w3.org/2000/svg" viewBox="0 0 48 48" width="24px" height="24px">
  <path fill="#4285F4" d="M45.12,24.7c0-1.02-0.09-1.99-0.24-2.93H24v5.54h11.91c-0.52,2.64-2.07,4.86-4.42,6.34v5.28h7.14C42.94,35.46,45.12,30.48,45.12,24.7z"/>
  <path fill="#34A853" d="M24,46c6.04,0,11.09-2.01,14.79-5.46l-7.14-5.28c-2.04,1.37-4.61,2.2-7.65,2.2c-5.88,0-10.86-3.97-12.64-9.31H4.01v5.4C7.7,41.4,15.36,46,24,46z"/>
  <path fill="#FBBC05" d="M11.36,28.15C10.91,26.82,10.64,25.4,10.64,24c0-1.4,0.26-2.82,0.72-4.15v-5.4H4.01C2.73,17.28,2,20.56,2,24c0,3.44,0.73,6.72,2.01,9.55L11.36,28.15z"/>
  <path fill="#EA4335" d="M24,9.46c3.18,0,6.02,1.09,8.27,3.22l6.2-6.2C34.7,2.63,29.65,0,24,0C15.36,0,7.7,4.6,4.01,11.45l7.35,5.4C13.14,13.43,18.12,9.46,24,9.46z"/>
</svg>
